<?xml version="1.0" ?>
<!DOCTYPE svg  PUBLIC '-//W3C//DTD SVG 1.1//EN'  'http://www.w3.org/Graphics/SVG/1.1/DTD/svg11.dtd'>
<!-- Uploaded to: SVG Repo, www.svgrepo.com, Generator: SVG Repo Mixer Tools -->
<svg fill="#000000" width="800px" height="800px" viewBox="0 0 32 32" style="fill-rule:evenodd;clip-rule:evenodd;stroke-linejoin:round;stroke-miterlimit:2;" version="1.1" xml:space="preserve" xmlns="http://www.w3.org/2000/svg" xmlns:serif="http://www.serif.com/" xmlns:xlink="http://www.w3.org/1999/xlink">
<g id="Layer1">
<path d="M13.068,4.362c-4.269,1.074 -7.633,4.437 -8.706,8.706c-1.35,0.293 -2.362,1.495 -2.362,2.932c0,1.437 1.012,2.639 2.362,2.932c1.074,4.269 4.437,7.633 8.706,8.706c0.293,1.35 1.495,2.362 2.932,2.362c1.437,-0 2.639,-1.012 2.932,-2.362c4.269,-1.074 7.633,-4.437 8.706,-8.706c1.35,-0.293 2.362,-1.495 2.362,-2.932c0,-1.437 -1.012,-2.639 -2.362,-2.932c-1.074,-4.269 -4.437,-7.633 -8.706,-8.706c-0.293,-1.35 -1.495,-2.362 -2.932,-2.362c-1.437,0 -2.639,1.012 -2.932,2.362Zm5.605,2c-0.496,0.972 -1.507,1.638 -2.673,1.638c-1.166,0 -2.177,-0.666 -2.673,-1.638c-3.372,0.934 -6.031,3.592 -6.965,6.965c0.972,0.496 1.638,1.507 1.638,2.673c0,1.166 -0.666,2.177 -1.638,2.673c0.934,3.372 3.592,6.031 6.965,6.965c0.496,-0.972 1.507,-1.638 2.673,-1.638c1.166,-0 2.177,0.666 2.673,1.638c3.372,-0.934 6.031,-3.592 6.965,-6.965c-0.972,-0.496 -1.638,-1.507 -1.638,-2.673c0,-1.166 0.666,-2.177 1.638,-2.673c-0.934,-3.372 -3.592,-6.031 -6.965,-6.965Zm-3.673,8.638l-5,0c-0.552,0 -1,0.448 -1,1c0,0.552 0.448,1 1,1l5,0l0,5c-0,0.552 0.448,1 1,1c0.552,0 1,-0.448 1,-1l0,-5l5,0c0.552,0 1,-0.448 1,-1c0,-0.552 -0.448,-1 -1,-1l-5,0l0,-5c-0,-0.552 -0.448,-1 -1,-1c-0.552,0 -1,0.448 -1,1l0,5Z"/>
</g>
</svg>